<svg xmlns="http://www.w3.org/2000/svg" xmlns:xlink="http://www.w3.org/1999/xlink" width="95.434" height="263.255"><symbol id="sprite-star" viewBox="0 0 95.434 90.763"><path d="M73.327 55.571l14.213 30.61 33.504 4.058-24.72 22.976 6.494 33.118-29.491-16.41-29.491 16.41 6.493-33.118L25.61 90.24l33.504-4.058z" stroke-width=".265" transform="translate(-25.61 -55.571)"/></symbol><symbol id="sprite-edit" viewBox="0 0 59.067 66.414"><path transform="translate(-20.045 -55.524) scale(.26458)" d="M214.57 209.86l-84.287 145.99c-25.753 71.973-17.577 89.455 42.064 24.285l84.287-145.99zM75.76 433.6v27.273H299V433.6z"/></symbol><symbol id="sprite-delete" viewBox="0 0 31.75 31.75"><path d="M27.647 76.101l11.528 11.528-11.528 11.528 4.347 4.347 11.528-11.528 11.528 11.528 4.347-4.347-11.528-11.528 11.528-11.528-4.347-4.347-11.528 11.528-11.528-11.528z" stroke-width=".265" transform="translate(-27.647 -71.754)"/></symbol><symbol id="sprite-comment" viewBox="0 0 46.113 44.412"><path transform="translate(-16.631 -12.144) scale(.26458)" d="M62.857 45.898v122.86h34.428v45l53.514-45h86.344V45.898zm79.674 31.787h10.65v23.961h23.961v10.648h-23.961v23.961h-10.65v-23.961H118.57v-10.648h23.961z"/></symbol><symbol id="sprite-check" viewBox="0 0 34.344 21.916"><path d="M54.883 83.706l-18.709 18.709L20.539 86.78l3.207-3.207L36.174 96l15.502-15.502z" stroke-width=".229" transform="translate(-20.539 -80.499)"/></symbol><use xlink:href="#sprite-check" width="34.344" height="21.916"/><use xlink:href="#sprite-comment" y="23.916" width="46.113" height="44.412"/><use xlink:href="#sprite-delete" y="70.328" width="31.75" height="31.75"/><use xlink:href="#sprite-edit" y="104.078" width="59.067" height="66.414"/><use xlink:href="#sprite-star" y="172.492" width="95.434" height="90.763"/></svg>